<svg width="256" height="256" viewBox="0 0 256 256" fill="none" xmlns="http://www.w3.org/2000/svg">
<rect width="256" height="256" rx="56" fill="url(#paint0_linear_1263_61)"/>
<path fill-rule="evenodd" clip-rule="evenodd" d="M138.488 159.268L140.735 166.869C141.977 171.072 146.268 173.134 150.32 171.475L157.658 168.48C155.176 160.083 146.595 155.96 138.488 159.268ZM129.502 128.864L133.995 144.066C150.18 137.455 167.384 145.722 172.341 162.493L187.018 156.503C179.576 131.306 153.825 118.932 129.502 128.864ZM208.579 147.697L201.698 150.506C191.771 116.921 157.438 100.422 125.006 113.652L122.899 106.525C121.552 101.966 124.371 96.8469 128.9 95.5646C164.007 85.6399 199.208 102.555 213.394 136.167C215.223 140.505 212.98 145.901 208.579 147.697Z" fill="white"/>
<path d="M187.31 164.324L179.652 170.676L169.714 170.513L176.065 178.141L175.876 188.118L183.518 181.723L193.472 181.929L187.106 174.257" fill="white"/>
<path d="M155.719 61.2774L148.653 67.1901L139.451 66.9992L145.349 74.0646L145.147 83.2757L152.213 77.363L161.415 77.554L155.517 70.4885" fill="white"/>
<path d="M224.469 105.367L219.711 109.349L213.514 109.221L217.486 113.979L217.35 120.182L222.109 116.2L228.306 116.329L224.333 111.571" fill="white"/>
<path d="M80.7012 99.4021L99.3919 164.804M80.7012 99.4021L74.2567 76.8521C73.8535 75.4411 73.6518 74.7355 73.7164 74.0677C73.7731 73.478 73.9771 72.912 74.3096 72.4218C74.6867 71.8664 75.2918 71.4521 76.5027 70.6233L103.59 52.0855C105.778 50.5877 106.873 49.8387 107.905 49.8053C108.808 49.7762 109.688 50.0937 110.365 50.6928C111.138 51.3774 111.502 52.6526 112.231 55.2028L118.676 77.7529C119.079 79.164 119.281 79.8695 119.216 80.5374C119.159 81.127 118.955 81.6929 118.623 82.1832C118.246 82.7386 117.641 83.1529 116.43 83.9816L89.3424 102.52C87.1539 104.017 86.0593 104.766 85.0274 104.8C84.1245 104.829 83.244 104.511 82.5671 103.912C81.7944 103.228 81.43 101.952 80.7012 99.4021ZM99.3919 164.804C102.077 174.2 93.5916 184.865 80.4385 188.624C67.2854 192.383 54.4458 187.813 51.7604 178.416C49.0748 169.019 57.5607 158.355 70.7138 154.596C83.8669 150.837 96.7064 155.407 99.3919 164.804Z" stroke="white" stroke-width="12" stroke-linecap="round" stroke-linejoin="round"/>
<defs>
<linearGradient id="paint0_linear_1263_61" x1="128" y1="0" x2="128" y2="256" gradientUnits="userSpaceOnUse">
<stop stop-color="#E26F71"/>
<stop offset="1" stop-color="#821D1D"/>
</linearGradient>
</defs>
</svg>
